<svg xmlns="http://www.w3.org/2000/svg" height="512pt" version="1.1" viewBox="0 0 512 512" width="512pt">
<g id="surface1">
<path d="M 512 256 C 512 282.050781 508.109375 307.191406 500.871094 330.871094 C 489 369.75 468.128906 404.691406 440.671875 433.28125 C 408.339844 466.960938 366.871094 491.820312 320.25 503.871094 C 299.71875 509.179688 278.191406 512 256 512 C 254.949219 512 253.910156 511.988281 252.859375 511.980469 C 232.121094 511.730469 211.980469 509.019531 192.710938 504.109375 L 192.699219 504.109375 C 145.699219 492.148438 103.890625 467.191406 71.328125 433.28125 C 50.789062 411.890625 33.929688 386.941406 21.769531 359.449219 C 7.769531 327.820312 0 292.820312 0 256 C 0 166.078125 46.371094 86.980469 116.5 41.320312 C 121.390625 38.128906 126.390625 35.121094 131.5 32.261719 C 168.351562 11.710938 210.808594 0 256 0 C 397.378906 0 512 114.621094 512 256 Z M 512 256 " style=" stroke:none;fill-rule:nonzero;fill:rgb(100%,91.372549%,33.333333%);fill-opacity:1;" />
<path d="M 512 256 C 512 282.050781 508.109375 307.191406 500.871094 330.871094 C 468.859375 435.71875 371.328125 512 256 512 C 151.441406 512 61.511719 449.300781 21.769531 359.449219 C 7.769531 327.820312 0 292.820312 0 256 C 0 209.78125 12.25 166.429688 33.679688 129 C 77.800781 206.070312 160.839844 258 256 258 C 351.160156 258 434.210938 206.070312 478.320312 129 C 499.75 166.429688 512 209.78125 512 256 Z M 512 256 " style=" stroke:none;fill-rule:nonzero;fill:rgb(100%,81.960784%,7.058824%);fill-opacity:1;" />
<path d="M 176.441406 220.5 L 175.769531 220.5 C 175.960938 219.738281 176.148438 218.980469 176.308594 218.210938 C 176.371094 218.96875 176.421875 219.730469 176.441406 220.5 Z M 176.441406 220.5 " style=" stroke:none;fill-rule:nonzero;fill:rgb(98.039216%,60.392157%,38.823529%);fill-opacity:1;" />
<path d="M 440.671875 433.28125 C 408.339844 466.960938 366.871094 491.820312 320.25 503.871094 C 299.71875 509.179688 278.191406 512 256 512 L 255.859375 512 C 254.859375 512 253.859375 511.988281 252.859375 511.980469 C 232.121094 511.730469 211.980469 509.019531 192.710938 504.109375 L 192.699219 504.109375 C 145.699219 492.148438 103.890625 467.191406 71.328125 433.28125 L 100.261719 348 L 100.359375 347.710938 L 411.640625 347.710938 Z M 440.671875 433.28125 " style=" stroke:none;fill-rule:nonzero;fill:rgb(37.647059%,12.54902%,9.019608%);fill-opacity:1;" />
<path d="M 440.671875 433.28125 C 408.339844 466.960938 366.871094 491.820312 320.25 503.871094 C 299.71875 509.179688 278.191406 512 256 512 L 255.859375 512 L 255.859375 347.710938 L 411.640625 347.710938 Z M 440.671875 433.28125 " style=" stroke:none;fill-rule:nonzero;fill:rgb(31.764706%,9.803922%,7.058824%);fill-opacity:1;" />
<path d="M 202.550781 247.050781 C 202.539062 247.078125 202.519531 247.101562 202.511719 247.128906 C 174.160156 261.75 138.472656 257.171875 114.710938 233.410156 C 114.222656 232.921875 113.730469 232.421875 113.25 231.910156 C 90.160156 207.53125 96.539062 177.449219 114.78125 159.28125 C 132.972656 141.128906 162.980469 134.828125 187.300781 157.859375 C 187.8125 158.339844 188.3125 158.828125 188.800781 159.328125 C 212.539062 183.058594 217.132812 218.710938 202.550781 247.050781 Z M 202.550781 247.050781 " style=" stroke:none;fill-rule:nonzero;fill:rgb(77.254902%,34.509804%,20.784314%);fill-opacity:1;" />
<path d="M 202.550781 247.050781 L 114.78125 159.28125 C 132.972656 141.128906 162.980469 134.828125 187.300781 157.859375 C 187.8125 158.339844 188.3125 158.828125 188.800781 159.328125 C 212.539062 183.058594 217.132812 218.710938 202.550781 247.050781 Z M 202.550781 247.050781 " style=" stroke:none;fill-rule:nonzero;fill:rgb(66.666667%,30.196078%,20%);fill-opacity:1;" />
<path d="M 184.710938 229.210938 C 184.691406 229.230469 184.679688 229.261719 184.671875 229.28125 C 167.839844 237.960938 146.660156 235.238281 132.5625 221.140625 C 132.261719 220.851562 131.980469 220.550781 131.691406 220.25 C 117.980469 205.769531 121.78125 187.910156 132.621094 177.121094 C 143.421875 166.371094 161.210938 162.648438 175.640625 176.308594 C 175.941406 176.589844 176.242188 176.878906 176.53125 177.171875 C 190.609375 191.25 193.339844 212.398438 184.710938 229.210938 Z M 184.710938 229.210938 " style=" stroke:none;fill-rule:nonzero;fill:rgb(98.039216%,60.392157%,38.823529%);fill-opacity:1;" />
<path d="M 184.710938 229.210938 L 132.621094 177.121094 C 143.421875 166.371094 161.210938 162.648438 175.640625 176.308594 C 175.941406 176.589844 176.242188 176.878906 176.53125 177.171875 C 190.609375 191.25 193.339844 212.398438 184.710938 229.210938 Z M 184.710938 229.210938 " style=" stroke:none;fill-rule:nonzero;fill:rgb(86.666667%,50.196078%,32.156863%);fill-opacity:1;" />
<path d="M 309.449219 247.050781 C 309.460938 247.078125 309.480469 247.101562 309.488281 247.128906 C 337.839844 261.75 373.527344 257.171875 397.289062 233.410156 C 397.777344 232.921875 398.269531 232.421875 398.75 231.910156 C 421.839844 207.53125 415.460938 177.449219 397.21875 159.28125 C 379.027344 141.128906 349.019531 134.828125 324.699219 157.859375 C 324.1875 158.339844 323.6875 158.828125 323.199219 159.328125 C 299.460938 183.058594 294.867188 218.710938 309.449219 247.050781 Z M 309.449219 247.050781 " style=" stroke:none;fill-rule:nonzero;fill:rgb(77.254902%,34.509804%,20.784314%);fill-opacity:1;" />
<path d="M 309.449219 247.050781 L 397.21875 159.28125 C 379.027344 141.128906 349.019531 134.828125 324.699219 157.859375 C 324.1875 158.339844 323.6875 158.828125 323.199219 159.328125 C 299.460938 183.058594 294.867188 218.710938 309.449219 247.050781 Z M 309.449219 247.050781 " style=" stroke:none;fill-rule:nonzero;fill:rgb(66.666667%,30.196078%,20%);fill-opacity:1;" />
<path d="M 327.289062 229.210938 C 327.308594 229.230469 327.320312 229.261719 327.328125 229.28125 C 344.160156 237.960938 365.339844 235.238281 379.4375 221.140625 C 379.738281 220.851562 380.019531 220.550781 380.308594 220.25 C 394.019531 205.769531 390.21875 187.910156 379.378906 177.121094 C 368.578125 166.371094 350.789062 162.648438 336.359375 176.308594 C 336.058594 176.589844 335.757812 176.878906 335.46875 177.171875 C 321.390625 191.25 318.660156 212.398438 327.289062 229.210938 Z M 327.289062 229.210938 " style=" stroke:none;fill-rule:nonzero;fill:rgb(98.039216%,60.392157%,38.823529%);fill-opacity:1;" />
<path d="M 327.289062 229.210938 L 379.378906 177.121094 C 368.578125 166.371094 350.789062 162.648438 336.359375 176.308594 C 336.058594 176.589844 335.757812 176.878906 335.46875 177.171875 C 321.390625 191.25 318.660156 212.398438 327.289062 229.210938 Z M 327.289062 229.210938 " style=" stroke:none;fill-rule:nonzero;fill:rgb(86.666667%,50.196078%,32.156863%);fill-opacity:1;" />
<path d="M 361.710938 421.929688 L 334.78125 434.648438 L 286.21875 457.570312 L 256.03125 471.828125 L 255.949219 471.871094 L 225.660156 457.570312 L 177.109375 434.648438 L 150.179688 421.929688 C 107.519531 401.789062 88.558594 351.421875 107.371094 308.148438 L 139.03125 235.25 C 140.75 231.308594 142.660156 227.5 144.769531 223.828125 C 165.230469 188.089844 203.441406 165.578125 245.261719 165.578125 L 266.621094 165.578125 C 308.441406 165.578125 346.660156 188.089844 367.109375 223.828125 C 369.21875 227.5 371.128906 231.308594 372.839844 235.25 L 404.519531 308.160156 C 423.308594 351.421875 404.371094 401.789062 361.710938 421.929688 Z M 361.710938 421.929688 " style=" stroke:none;fill-rule:nonzero;fill:rgb(47.843137%,17.647059%,10.196078%);fill-opacity:1;" />
<path d="M 361.710938 421.929688 L 334.78125 434.648438 L 286.21875 457.570312 L 256.03125 471.828125 L 256.03125 165.578125 L 266.621094 165.578125 C 308.441406 165.578125 346.660156 188.089844 367.109375 223.828125 C 369.21875 227.5 371.128906 231.308594 372.839844 235.25 L 404.519531 308.160156 C 423.308594 351.421875 404.371094 401.789062 361.710938 421.929688 Z M 361.710938 421.929688 " style=" stroke:none;fill-rule:nonzero;fill:rgb(37.647059%,12.54902%,9.019608%);fill-opacity:1;" />
<path d="M 225.660156 306.640625 L 225.660156 457.570312 L 177.109375 434.644531 L 150.175781 421.925781 C 107.519531 401.789062 88.5625 351.414062 107.363281 308.148438 L 139.03125 235.25 C 140.746094 231.3125 142.660156 227.496094 144.769531 223.828125 C 189.621094 224.855469 225.660156 261.542969 225.660156 306.640625 Z M 225.660156 306.640625 " style=" stroke:none;fill-rule:nonzero;fill:rgb(77.254902%,34.509804%,20.784314%);fill-opacity:1;" />
<path d="M 361.707031 421.925781 L 334.777344 434.644531 L 286.222656 457.570312 L 286.222656 306.640625 C 286.222656 261.542969 322.261719 224.863281 367.105469 223.828125 C 369.214844 227.496094 371.132812 231.3125 372.84375 235.253906 L 404.515625 308.15625 C 423.3125 351.414062 404.363281 401.789062 361.707031 421.925781 Z M 361.707031 421.925781 " style=" stroke:none;fill-rule:nonzero;fill:rgb(77.254902%,34.509804%,20.784314%);fill-opacity:1;" />
<path d="M 334.78125 434.644531 L 255.949219 471.867188 L 177.113281 434.644531 C 181.6875 376.035156 215.246094 330.546875 255.949219 330.546875 C 261.457031 330.546875 266.84375 331.386719 272.039062 332.976562 C 305.203125 343.109375 330.820312 383.980469 334.78125 434.644531 Z M 334.78125 434.644531 " style=" stroke:none;fill-rule:nonzero;fill:rgb(47.843137%,17.647059%,10.196078%);fill-opacity:1;" />
<path d="M 318.871094 424.671875 C 318.871094 439.898438 316.410156 450.988281 312.050781 459.070312 C 311.480469 460.121094 310.878906 461.121094 310.25 462.070312 C 307.371094 466.429688 303.839844 469.769531 299.761719 472.328125 C 299.179688 472.691406 298.589844 473.039062 297.988281 473.371094 C 289.859375 477.859375 279.789062 479.550781 268.671875 480.140625 C 264.558594 480.351562 260.308594 480.421875 255.949219 480.421875 C 239.601562 480.421875 224.691406 479.511719 213.519531 473.160156 C 212.890625 472.800781 212.269531 472.429688 211.660156 472.039062 C 207.691406 469.460938 204.25 466.121094 201.449219 461.800781 C 200.820312 460.828125 200.21875 459.808594 199.660156 458.730469 C 195.410156 450.679688 193.011719 439.691406 193.011719 424.671875 C 193.011719 377.261719 216.800781 338.089844 247.628906 332.050781 C 250.351562 331.519531 253.128906 331.238281 255.949219 331.238281 C 260.320312 331.238281 264.578125 331.910156 268.699219 333.171875 C 297.339844 341.910156 318.871094 379.558594 318.871094 424.671875 Z M 318.871094 424.671875 " style=" stroke:none;fill-rule:nonzero;fill:rgb(98.039216%,60.392157%,38.823529%);fill-opacity:1;" />
<path d="M 255.949219 331.238281 L 255.949219 480.421875 C 239.601562 480.421875 224.691406 479.511719 213.519531 473.160156 C 212.890625 472.800781 212.269531 472.429688 211.660156 472.039062 C 207.691406 469.460938 204.25 466.121094 201.449219 461.800781 C 200.820312 460.828125 200.21875 459.808594 199.660156 458.730469 C 195.410156 450.679688 193.011719 439.691406 193.011719 424.671875 C 193.011719 377.261719 216.800781 338.089844 247.628906 332.050781 Z M 255.949219 331.238281 " style=" stroke:none;fill-rule:nonzero;fill:rgb(86.666667%,50.196078%,32.156863%);fill-opacity:1;" />
<path d="M 199.84375 329.265625 C 191.402344 333.660156 180.871094 333.304688 172.550781 327.457031 C 164.230469 321.609375 160.332031 311.820312 161.605469 302.390625 C 170.042969 298.003906 180.574219 298.359375 188.894531 304.207031 C 197.214844 310.054688 201.113281 319.84375 199.84375 329.265625 Z M 199.84375 329.265625 " style=" stroke:none;fill-rule:nonzero;fill:rgb(0%,18.039216%,21.568627%);fill-opacity:1;" />
<path d="M 309.882812 329.265625 C 318.320312 333.660156 328.855469 333.304688 337.175781 327.457031 C 345.492188 321.609375 349.394531 311.820312 348.117188 302.390625 C 339.683594 298.003906 329.148438 298.359375 320.832031 304.207031 C 312.511719 310.054688 308.613281 319.84375 309.882812 329.265625 Z M 309.882812 329.265625 " style=" stroke:none;fill-rule:nonzero;fill:rgb(0%,18.039216%,21.568627%);fill-opacity:1;" />
<path d="M 312.050781 459.070312 C 311.480469 460.121094 310.878906 461.121094 310.25 462.070312 C 307.371094 466.429688 303.839844 469.769531 299.761719 472.328125 L 254.78125 465.300781 L 211.660156 472.039062 C 207.691406 469.460938 204.25 466.121094 201.449219 461.800781 C 200.820312 460.828125 200.21875 459.808594 199.660156 458.730469 L 247.109375 451.320312 L 247.109375 391 L 262.449219 391 L 262.449219 451.320312 Z M 312.050781 459.070312 " style=" stroke:none;fill-rule:nonzero;fill:rgb(47.843137%,17.647059%,10.196078%);fill-opacity:1;" />
<path d="M 284.964844 388.679688 L 270.253906 414.148438 C 263.933594 425.101562 248.125 425.101562 241.804688 414.148438 L 227.09375 388.679688 C 223.285156 382.078125 224.644531 374.476562 229.09375 369.484375 C 232.023438 366.191406 236.296875 364.035156 241.324219 364.035156 L 270.734375 364.035156 C 275.761719 364.035156 280.035156 366.191406 282.96875 369.484375 C 287.414062 374.476562 288.773438 382.078125 284.964844 388.679688 Z M 284.964844 388.679688 " style=" stroke:none;fill-rule:nonzero;fill:rgb(0%,18.039216%,21.568627%);fill-opacity:1;" />
<path d="M 282.964844 369.488281 L 270.253906 391.492188 C 263.933594 402.441406 248.125 402.441406 241.804688 391.492188 L 229.09375 369.488281 C 232.023438 366.195312 236.296875 364.035156 241.324219 364.035156 L 270.734375 364.035156 C 275.761719 364.035156 280.035156 366.195312 282.964844 369.488281 Z M 282.964844 369.488281 " style=" stroke:none;fill-rule:nonzero;fill:rgb(17.254902%,23.137255%,33.72549%);fill-opacity:1;" />
</g>
</svg>