<svg height="512pt" viewBox="0 0 512 512" width="512pt" xmlns="http://www.w3.org/2000/svg"><path d="m512 256c0 141.386719-114.613281 256-256 256s-256-114.613281-256-256 114.613281-256 256-256 256 114.613281 256 256zm0 0" fill="#ffaf10"/><path d="m436.472656 256c0 99.671875-80.800781 180.472656-180.472656 180.472656s-180.472656-80.800781-180.472656-180.472656 80.800781-180.472656 180.472656-180.472656 180.472656 80.800781 180.472656 180.472656zm0 0" fill="#ffd00d"/><path d="m256 221.644531c-133.84375 0-192.296875 116.695313-196.929688 197.917969 23.671876 28.46875 53.402344 51.722656 87.210938 67.785156h219.4375c33.808594-16.0625 63.539062-39.3125 87.214844-67.785156-4.636719-81.226562-63.089844-197.917969-196.933594-197.917969zm0 0" fill="#b25414"/><path d="m364.007812 253.859375c-28.421874-19.691406-64.167968-32.214844-108.007812-32.214844s-79.585938 12.523438-108.007812 32.214844c24.898437 32.4375 64.046874 53.394531 108.007812 53.394531s83.109375-20.957031 108.007812-53.394531zm0 0" fill="#9e480e"/><path d="m388.394531 336.585938c-9.351562-65.9375-65.796875-114.941407-132.394531-114.941407s-123.042969 49.003907-132.394531 114.941407l-10.960938 77.292968c-2.761719 19.464844-1.523437 38.46875 3.035157 56.25 40.296874 26.464844 88.507812 41.871094 140.320312 41.871094s100.023438-15.40625 140.320312-41.871094c4.558594-17.78125 5.796876-36.785156 3.035157-56.25zm0 0" fill="#c6621e"/><path d="m338.890625 343.605469c-2.832031-19.964844-12.777344-38.242188-28.003906-51.460938-15.230469-13.222656-34.722657-20.503906-54.886719-20.503906s-39.65625 7.28125-54.886719 20.503906c-15.226562 13.21875-25.171875 31.496094-28.003906 51.460938l-10.960937 77.292969c-3.859376 27.203124 4.257812 54.707031 22.273437 75.453124 2.296875 2.648438 4.726563 5.148438 7.273437 7.5 20.546876 5.316407 42.09375 8.148438 64.304688 8.148438s43.757812-2.832031 64.304688-8.148438c2.546874-2.351562 4.976562-4.851562 7.273437-7.5 18.015625-20.746093 26.132813-48.25 22.273437-75.453124zm0 0" fill="#db722c"/><path d="m256 307.253906c38.722656 0 73.71875-16.257812 98.523438-42.300781-24.59375-26.777344-59.84375-43.308594-98.523438-43.308594s-73.929688 16.53125-98.523438 43.308594c24.804688 26.042969 59.800782 42.300781 98.523438 42.300781zm0 0" fill="#b25414"/><path d="m256 271.644531c-20.164062 0-39.65625 7.277344-54.886719 20.5-.882812.769531-1.75 1.558594-2.597656 2.363281 17.46875 8.175782 36.953125 12.746094 57.484375 12.746094s40.015625-4.570312 57.484375-12.746094c-.847656-.804687-1.714844-1.59375-2.597656-2.363281-15.230469-13.21875-34.722657-20.5-54.886719-20.5zm0 0" fill="#c6621e"/><path d="m394.96875 50.820312c0 28.066407-22.753906 50.816407-50.820312 50.816407-28.066407 0-50.816407-22.75-50.816407-50.816407 0-28.066406 22.75-50.820312 50.816407-50.820312 28.066406 0 50.820312 22.753906 50.820312 50.820312zm0 0" fill="#b25414"/><path d="m217.863281 50.820312c0 28.066407-22.753906 50.816407-50.820312 50.816407-28.066407 0-50.820313-22.75-50.820313-50.816407 0-28.066406 22.753906-50.820312 50.820313-50.820312 28.066406 0 50.820312 22.753906 50.820312 50.820312zm0 0" fill="#b25414"/><path d="m167.042969 76.636719c-14.238281 0-25.820313-11.582031-25.820313-25.816407 0-14.238281 11.582032-25.820312 25.820313-25.820312s25.820312 11.582031 25.820312 25.820312c0 14.234376-11.582031 25.816407-25.820312 25.816407zm0 0" fill="#9e480e"/><path d="m344.148438 76.636719c-14.234376 0-25.816407-11.582031-25.816407-25.816407 0-14.238281 11.582031-25.820312 25.816407-25.820312 14.238281 0 25.820312 11.582031 25.820312 25.820312 0 14.234376-11.582031 25.816407-25.820312 25.816407zm0 0" fill="#9e480e"/><path d="m256 287.253906c-64.117188 0-116.09375-51.976562-116.09375-116.09375v-41.441406c0-64.117188 51.976562-116.09375 116.09375-116.09375s116.09375 51.976562 116.09375 116.09375v41.441406c0 64.117188-51.976562 116.09375-116.09375 116.09375zm0 0" fill="#c6621e"/><path d="m256 243.609375c-31.421875 0-56.984375-25.5625-56.984375-56.984375v-21.441406c0-31.421875 25.5625-56.988282 56.984375-56.988282s56.984375 25.566407 56.984375 56.988282v21.441406c0 31.421875-25.5625 56.984375-56.984375 56.984375zm0 0" fill="#db722c"/><path d="m283.710938 117.289062c0 15.304688-12.40625 27.710938-27.710938 27.710938s-27.710938-12.40625-27.710938-27.710938c0-15.304687 12.40625-14.578124 27.710938-14.578124s27.710938-.722657 27.710938 14.578124zm0 0" fill="#b25414"/><path d="m248.289062 117.289062c0-11.773437 7.351563-14.058593 17.710938-14.484374-3.101562-.128907-6.472656-.09375-10-.09375-15.304688 0-27.710938-.722657-27.710938 14.578124 0 15.304688 12.40625 27.710938 27.710938 27.710938 3.527344 0 6.898438-.664062 10-1.867188-10.359375-4.011718-17.710938-14.066406-17.710938-25.84375zm0 0" fill="#9e480e"/></svg>