<svg height="512pt" viewBox="0 0 512 512" width="512pt" xmlns="http://www.w3.org/2000/svg"><path d="m512 256c0 141.386719-114.613281 256-256 256s-256-114.613281-256-256 114.613281-256 256-256 256 114.613281 256 256zm0 0" fill="#ffcf11"/><path d="m182 175.132812h-30v-170.226562c0-2.710938 2.195312-4.90625 4.90625-4.90625h20.1875c2.710938 0 4.90625 2.195312 4.90625 4.90625zm0 0" fill="#ff3345"/><path d="m360 175.132812h-30v-170.226562c0-2.710938 2.195312-4.90625 4.90625-4.90625h20.1875c2.710938 0 4.90625 2.195312 4.90625 4.90625zm0 0" fill="#e32828"/><path d="m339.242188 321.785156s24.808593-80.109375 44.835937-135.25c17.425781-47.96875-16.761719-99.785156-67.777344-101.261718-.773437-.023438-1.542969-.035157-2.320312-.035157h-6.605469c-10.25 0-19.851562 5.03125-25.6875 13.457031-12.425781 17.945313-38.949219 17.945313-51.375 0-5.835938-8.425781-15.433594-13.457031-25.6875-13.457031h-6.605469c-.773437 0-1.546875.011719-2.316406.035157-51.015625 1.476562-85.207031 53.292968-67.78125 101.261718 20.027344 55.140625 44.835937 135.25 44.835937 135.25s-89.4375 27.804688-120.1875 89.617188c46.78125 61.148437 120.492188 100.597656 203.429688 100.597656s156.648438-39.449219 203.429688-100.597656c-30.746094-61.8125-120.1875-89.617188-120.1875-89.617188zm0 0" fill="#ff3345"/><path d="m52.570312 411.402344c9.113282 11.910156 19.242188 23 30.269532 33.132812 8.777344-85.09375 129.917968-122.75 129.917968-122.75s-24.808593-80.109375-44.835937-135.25c-15.261719-42.015625 9.074219-86.984375 49.636719-98.488281-4.007813-1.820313-8.40625-2.804687-12.933594-2.804687h-6.605469c-.777343 0-1.546875.011718-2.320312.03125-51.015625 1.480468-85.203125 53.292968-67.777344 101.265624 20.027344 55.140626 44.835937 135.25 44.835937 135.25s-89.441406 27.800782-120.1875 89.613282zm0 0" fill="#e32828"/><path d="m355.46875 271.785156h-198.9375c-2.304688 0-3.9375 2.253906-3.230469 4.449219 6.710938 20.777344 11.867188 37.238281 13.714844 43.167969.445313 1.421875 1.753906 2.382812 3.242187 2.382812h171.480469c1.488281 0 2.800781-.960937 3.246094-2.382812 1.847656-5.929688 7-22.390625 13.714844-43.167969.707031-2.195313-.925781-4.449219-3.230469-4.449219zm0 0" fill="#fff"/><path d="m308.691406 253.023438c-20.042968 0-52.691406 22.945312-52.691406 22.945312s-32.648438-22.945312-52.691406-22.945312c-20.042969 0-20.042969 87.523437 0 87.523437 20.042968 0 52.691406-22.941406 52.691406-22.941406s32.648438 22.941406 52.691406 22.941406c20.042969 0 20.042969-87.523437 0-87.523437zm0 0" fill="#ebf0f3"/><path d="m203.308594 253.023438c-20.042969 0-20.042969 87.523437 0 87.523437 20.042968 0 52.691406-22.941406 52.691406-22.941406v-41.636719s-32.648438-22.945312-52.691406-22.945312zm0 0" fill="#c7d9ff"/><path d="m256 330.992188c-14.015625 0-25.378906-11.363282-25.378906-25.378907v-17.652343c0-14.019532 11.363281-25.382813 25.378906-25.382813s25.378906 11.363281 25.378906 25.382813v17.652343c0 14.015625-11.363281 25.378907-25.378906 25.378907zm0 0" fill="#fff"/><path d="m246.003906 305.613281v-17.652343c0-11.335938 7.433594-20.933594 17.6875-24.191407-2.425781-.769531-5.007812-1.191406-7.691406-1.191406-14.015625 0-25.378906 11.363281-25.378906 25.382813v17.652343c0 14.015625 11.363281 25.378907 25.378906 25.378907 2.683594 0 5.265625-.417969 7.691406-1.1875-10.253906-3.261719-17.6875-12.859376-17.6875-24.191407zm0 0" fill="#ebf0f3"/></svg>