<svg height="512pt" viewBox="0 0 512 512" width="512pt" xmlns="http://www.w3.org/2000/svg"><path d="m512 256c0 65.652344-24.710938 125.542969-65.359375 170.851562-44.261719 49.371094-107.425781 81.4375-178.113281 84.84375-4.148438.199219-8.328125.304688-12.527344.304688s-8.378906-.105469-12.539062-.304688c-56.726563-2.734374-108.605469-23.925781-149.765626-57.71875-10.125-8.308593-19.601562-17.386718-28.347656-27.136718-40.636718-45.304688-65.347656-105.1875-65.347656-170.839844s24.710938-125.535156 65.347656-170.839844c12.265625-13.6875 25.988282-26.039062 40.917969-36.824218 42.109375-30.414063 93.820313-48.335938 149.734375-48.335938s107.625 17.921875 149.734375 48.335938c14.929687 10.785156 28.652344 23.136718 40.90625 36.8125 40.648437 45.308593 65.359375 105.199218 65.359375 170.851562zm0 0" fill="#f9de6b"/><path d="m446.640625 62.996094v363.855468c-44.261719 49.371094-107.425781 81.4375-178.113281 84.84375v-254.640624c0-6.925782-5.609375-12.539063-12.539063-12.539063-6.914062 0-12.527343 5.613281-12.527343 12.539063v254.640624c-70.6875-3.40625-133.851563-35.484374-178.113282-84.855468v-363.84375c0-8.097656 6.5625-14.660156 14.660156-14.660156h351.972657c8.097656 0 14.660156 6.5625 14.660156 14.660156zm0 0" fill="#7abecf"/><path d="m355.75 107.171875c0 50.207031 40.699219 90.898437 90.894531 90.898437v-90.898437z" fill="#4896b0"/><path d="m93.695312 143.027344v310.949218c-10.125-8.308593-19.601562-17.386718-28.347656-27.136718v-283.8125zm0 0" fill="#4896b0"/><path d="m156.25 107.171875c0 50.207031-40.703125 90.898437-90.894531 90.898437v-90.898437z" fill="#4896b0"/><path d="m80.003906 43.109375h351.988282c8.09375 0 14.652343 6.5625 14.652343 14.65625v49.40625h-381.292969v-49.40625c0-8.09375 6.558594-14.65625 14.652344-14.65625zm0 0" fill="#f29367"/><path d="m80.003906 43.109375h76.246094v64.0625h-90.898438v-49.40625c0-8.09375 6.558594-14.65625 14.652344-14.65625zm0 0" fill="#dd6131"/><path d="m255.996094 107.171875v87.726563c-19.605469 0-35.5-15.894532-35.5-35.503907v-52.222656" fill="#4896b0"/><path d="m94.34375 43.109375h15.671875v64.0625h-15.671875zm0 0" fill="#4896b0"/><g fill="#7abecf"><path d="m401.980469 43.109375h15.671875v64.0625h-15.671875zm0 0"/><path d="m314.648438 43.109375h15.675781v64.0625h-15.675781zm0 0"/><path d="m181.671875 43.109375h15.675781v64.0625h-15.675781zm0 0"/></g><path d="m225.671875 43.109375h60.652344v64.0625h-60.652344zm0 0" fill="#dd6131"/><path d="m286.324219 115.007812h-60.648438c-4.328125 0-7.839843-3.507812-7.839843-7.835937v-64.0625c0-4.328125 3.511718-7.835937 7.839843-7.835937h60.648438c4.328125 0 7.835937 3.507812 7.835937 7.835937v64.0625c0 4.328125-3.507812 7.835937-7.835937 7.835937zm-52.8125-15.671874h44.972656v-48.390626h-44.972656zm0 0" fill="#e8c018"/><path d="m254.976562 82.574219h-29.300781c-4.328125 0-7.839843-3.507813-7.839843-7.835938s3.511718-7.835937 7.839843-7.835937h29.300781c4.328126 0 7.839844 3.507812 7.839844 7.835937s-3.511718 7.835938-7.839844 7.835938zm0 0" fill="#e8c018"/></svg>