<svg height="512pt" viewBox="0 0 512 512" width="512pt" xmlns="http://www.w3.org/2000/svg"><path d="m512 256c0 141.386719-114.613281 256-256 256s-256-114.613281-256-256 114.613281-256 256-256 256 114.613281 256 256zm0 0" fill="#0c99e6"/><path d="m422.386719 288.460938-104.746094 11.140624c-1.042969.109376-1.835937.988282-1.835937 2.039063v196.296875c0 1.132812.917968 2.050781 2.050781 2.050781h15.816406c3.25-1.03125 6.476563-2.125 9.671875-3.28125v-165.214843c0-1.050782.789062-1.929688 1.832031-2.039063l77.644531-8.257813c1.042969-.109374 1.832032-.992187 1.832032-2.039062v-28.65625c0-1.21875-1.054688-2.167969-2.265625-2.039062zm0 0" fill="#303a59"/><path d="m292.398438 449.046875c-28.132813 0-50.945313 22.804687-50.945313 50.941406 0 4.019531.480469 7.925781 1.363281 11.675781 4.367188.222657 8.761719.335938 13.183594.335938 30.632812 0 60.003906-5.386719 87.230469-15.253906-1.675781-26.625-23.785157-47.699219-50.832031-47.699219zm0 0" fill="#3e4a68"/><path d="m241.457031 499.988281c0 4.019531.480469 7.925781 1.359375 11.675781 4.367188.222657 8.761719.335938 13.183594.335938 2.972656 0 5.929688-.070312 8.878906-.171875-.902344-3.800781-1.394531-7.761719-1.394531-11.839844 0-24.351562 17.089844-44.710937 39.929687-49.746093-3.546874-.78125-7.230468-1.195313-11.015624-1.195313-28.132813 0-50.941407 22.808594-50.941407 50.941406zm0 0" fill="#303a59"/><path d="m187.796875 159.472656-104.746094 11.140625c-1.042969.113281-1.832031.992188-1.832031 2.039063v196.300781c0 1.132813.917969 2.050781 2.050781 2.050781h23.433594c1.136719 0 2.054687-.917968 2.054687-2.050781v-166.445313c0-1.050781.789063-1.929687 1.832032-2.039062l77.644531-8.257812c1.042969-.113282 1.832031-.992188 1.832031-2.039063v-28.660156c0-1.214844-1.058594-2.167969-2.269531-2.039063zm0 0" fill="#303a59"/><path d="m57.8125 320.058594c-17.828125 0-33.503906 9.164062-42.609375 23.027344 10.511719 29.0625 26.140625 55.667968 45.789063 78.753906 26.652343-1.644532 47.761718-23.769532 47.761718-50.835938 0-28.136718-22.808594-50.945312-50.941406-50.945312zm0 0" fill="#3e4a68"/><path d="m15.203125 343.085938c3.917969 10.824218 8.546875 21.304687 13.824219 31.390624-.078125-1.148437-.128906-2.304687-.128906-3.472656 0-24.355468 17.089843-44.710937 39.929687-49.746094-3.546875-.78125-7.234375-1.199218-11.015625-1.199218-17.828125 0-33.503906 9.164062-42.609375 23.027344zm0 0" fill="#303a59"/><path d="m238.039062 47.433594v243.269531h33.699219v-146.101563c0-.964843.726563-1.777343 1.6875-1.878906l172.789063-18.378906c1.117187-.117188 2.089844.757812 2.089844 1.878906v132.808594h33.695312v-237.144531c0-1.121094-.972656-1.996094-2.089844-1.875l-240.179687 25.542969c-.960938.101562-1.691407.914062-1.691407 1.878906zm0 0" fill="#303a59"/><path d="m482 259.03125c0 34.425781-27.910156 62.335938-62.339844 62.335938-34.425781 0-62.335937-27.910157-62.335937-62.335938 0-34.429688 27.910156-62.339844 62.335937-62.339844 34.429688 0 62.339844 27.910156 62.339844 62.339844zm0 0" fill="#3e4a68"/><path d="m384.28125 259.03125c0-29.800781 20.910156-54.710938 48.859375-60.875-4.339844-.957031-8.851563-1.464844-13.476563-1.464844-34.429687 0-62.339843 27.910156-62.339843 62.339844s27.910156 62.335938 62.339843 62.335938c4.628907 0 9.136719-.507813 13.476563-1.464844-27.949219-6.160156-48.859375-31.074219-48.859375-60.871094zm0 0" fill="#303a59"/><path d="m271.738281 290.703125c0 34.429687-27.910156 62.339844-62.339843 62.339844-34.425782 0-62.335938-27.910157-62.335938-62.339844 0-34.425781 27.910156-62.335937 62.335938-62.335937 34.429687 0 62.339843 27.910156 62.339843 62.335937zm0 0" fill="#3e4a68"/><path d="m174.019531 290.703125c0-29.800781 20.910157-54.710937 48.859375-60.871094-4.34375-.957031-8.851562-1.464843-13.480468-1.464843-34.425782 0-62.335938 27.90625-62.335938 62.335937s27.910156 62.339844 62.335938 62.339844c4.628906 0 9.140624-.511719 13.480468-1.46875-27.949218-6.160157-48.859375-31.070313-48.859375-60.871094zm0 0" fill="#303a59"/><path d="m173.792969 24.253906c-14.335938-14.339844-37.578125-14.339844-51.914063 0l-13.125 13.121094-13.121094-13.121094c-14.335937-14.339844-37.578124-14.339844-51.914062 0-14.335938 14.335938-14.335938 37.578125 0 51.914063l13.121094 13.121093 48.90625 48.910157c1.660156 1.660156 4.355468 1.660156 6.015625 0l62.03125-62.03125c14.335937-14.335938 14.335937-37.578125 0-51.914063zm0 0" fill="#ffe854"/><path d="m233.441406 387.007812c-9.558594-9.5625-25.0625-9.5625-34.625 0l-8.75 8.753907-8.753906-8.753907c-9.5625-9.5625-25.066406-9.5625-34.625 0-9.5625 9.5625-9.5625 25.066407 0 34.625l8.753906 8.753907 32.617188 32.621093c1.109375 1.105469 2.90625 1.105469 4.011718 0l32.621094-32.621093 8.75-8.753907c9.5625-9.558593 9.5625-25.0625 0-34.625zm0 0" fill="#ffe854"/><g fill="#ffcf11"><path d="m175.441406 430.386719-8.753906-8.753907c-9.5625-9.5625-9.5625-25.0625 0-34.625 2.171875-2.171874 4.664062-3.828124 7.3125-5.011718-9-4.027344-19.925781-2.375-27.3125 5.011718-9.5625 9.5625-9.5625 25.066407 0 34.625l8.753906 8.753907 32.617188 32.621093c1.109375 1.105469 2.90625 1.105469 4.011718 0l7.996094-7.996093zm0 0"/><path d="m86.839844 89.289062-13.121094-13.121093c-14.335938-14.335938-14.335938-37.578125 0-51.914063 3.257812-3.261718 6.984375-5.773437 10.957031-7.550781-13.496093-6.039063-29.882812-3.527344-40.957031 7.550781-14.335938 14.335938-14.335938 37.578125 0 51.914063l13.121094 13.121093 48.90625 48.910157c1.660156 1.660156 4.355468 1.660156 6.015625 0l11.992187-11.996094zm0 0"/></g></svg>