<svg height="512pt" viewBox="0 0 512 512" width="512pt" xmlns="http://www.w3.org/2000/svg"><path d="m512 256c0 141.386719-114.613281 256-256 256s-256-114.613281-256-256 114.613281-256 256-256 256 114.613281 256 256zm0 0" fill="#0c99e6"/><path d="m40.550781 394.316406c45.542969 70.792969 125.019531 117.683594 215.449219 117.683594s169.90625-46.890625 215.449219-117.683594zm0 0" fill="#303a59"/><path d="m256 0c-42.636719 0-82.828125 10.4375-118.1875 28.871094l-38.28125 100.503906 191.679688 264.019531 114.078124-46.496093-124.363281-248.738282c-14.027343-28.054687-21.332031-58.988281-21.332031-90.355468v-7.757813c-1.199219-.0195312-2.390625-.046875-3.59375-.046875zm0 0" fill="#ffe2d9"/><path d="m137.8125 28.871094-38.28125 100.503906 191.679688 264.019531 114.078124-46.496093-23.164062-46.332032c-4.769531.707032-9.410156 2.210938-13.652344 4.488282-6.0625 3.242187-11.28125 7.980468-15.082031 13.695312l-2.613281 3.917969c-2.21875 3.320312-5.914063 5.300781-9.886719 5.300781-11.3125 0-22.351563-3.183594-31.917969-9.203125-9.5625-6.019531-17.203125-14.597656-22.101562-24.800781l-131.195313-273.539063c-6.074219 2.59375-12.035156 5.410157-17.863281 8.445313zm0 0" fill="#ffcfc2"/><path d="m80.039062 122.382812v289.367188c0 9.945312 8.0625 18.011719 18.007813 18.011719s18.011719-8.066407 18.011719-18.011719v-86.242188c0-38.839843 31.484375-70.328124 70.324218-70.328124v-132.796876zm0 0" fill="#e32828"/><path d="m97.039062 122.382812h-17v289.367188c0 9.945312 8.0625 18.007812 18.007813 18.007812 3.074219 0 5.96875-.773437 8.5-2.132812-5.65625-3.035156-9.507813-9.003906-9.507813-15.875v-198.660156c1.21875 1.253906 2.457032 2.496094 3.734376 3.710937l.992187.9375c16.226563 15.425781 31.054687 32.21875 44.34375 50.128907 11.410156-7.988282 25.289063-12.6875 40.273437-12.6875v-132.800782h-89.34375zm0 0" fill="#aa1e1e"/><path d="m512 409.890625c0 10.96875-8.898438 19.871094-19.871094 19.871094h-203.75c-15.777344 0-30.640625-5.121094-42.75-14.011719-12.097656-8.890625-21.429687-21.539062-26.160156-36.601562-20.578125-65.609376-57.527344-124.898438-107.367188-172.277344l-.992187-.941406c-40.160156-38.179688-47.78125-97.578126-22.300781-143.789063 16.121094-13.921875 33.992187-25.851563 53.242187-35.441406l131.300781 273.75c6.226563 12.992187 15.910157 23.628906 27.628907 31.011719 11.730469 7.378906 25.5 11.507812 39.910156 11.507812 8.980469 0 17.371094-4.5 22.359375-11.96875l2.621094-3.929688c2.488281-3.742187 5.828125-6.730468 9.679687-8.789062 3.839844-2.0625 8.1875-3.179688 12.679688-3.179688 5.738281 0 11.328125 1.839844 15.949219 5.25l77.28125 56.988282 22.460937 16.558594c2.539063 1.871093 4.558594 4.292968 5.9375 7.03125 1.390625 2.742187 2.140625 5.808593 2.140625 8.960937zm0 0" fill="#ff3345"/><path d="m249.46875 379.148438c-20.578125-65.609376-57.527344-124.898438-107.367188-172.277344l-.992187-.941406c-38.605469-36.703126-49.953125-115.175782-28.140625-162.246094-8.417969 5.679687-16.492188 11.835937-24.160156 18.457031-25.480469 46.210937-17.859375 105.609375 22.300781 143.789063l.992187.941406c49.839844 47.378906 86.789063 106.667968 107.367188 172.277344 4.730469 15.0625 14.0625 27.710937 26.160156 36.601562 12.109375 8.890625 26.972656 14.011719 42.75 14.011719h30c-15.777344 0-30.640625-5.121094-42.75-14.011719-12.097656-8.890625-21.429687-21.539062-26.160156-36.601562zm0 0" fill="#e32828"/></svg>