<?xml version="1.0" encoding="iso-8859-1"?>
<!-- Generator: Adobe Illustrator 19.0.0, SVG Export Plug-In . SVG Version: 6.00 Build 0)  -->
<svg version="1.1" id="Capa_1" xmlns="http://www.w3.org/2000/svg" xmlns:xlink="http://www.w3.org/1999/xlink" x="0px" y="0px"
	 viewBox="0 0 512 512" style="enable-background:new 0 0 512 512;" xml:space="preserve">
<circle style="fill:#FFEE00;" cx="256" cy="256" r="256"/>
<path style="fill:#FFD300;" d="M511.518,271.518L366.333,126.333l-5.843,22.48l-46.69-46.691L145.667,418.333l93.074,93.075
	C244.447,511.788,250.198,512,256,512C392.173,512,503.494,405.675,511.518,271.518z"/>
<polygon style="fill:#8F23D6;" points="149.251,250.877 117.667,290 67.239,230.734 145.667,126.333 "/>
<polygon style="fill:#5C00B6;" points="362.749,250.877 394.333,290 444.761,230.734 366.333,126.333 "/>
<path style="fill:#8F23D6;" d="M317.072,129.667H194.928v-18.233c0-8.229,6.671-14.9,14.9-14.9h92.344c8.229,0,14.9,6.671,14.9,14.9
	V129.667z"/>
<g>
	<path style="fill:#5C00B6;" d="M317.072,111.434c0-8.229-6.671-14.9-14.9-14.9h-45.734v33.133h60.633v-18.233H317.072z"/>
	<rect x="145.67" y="126.33" style="fill:#5C00B6;" width="220.67" height="292"/>
</g>
<rect x="256.44" y="126.33" style="fill:#191784;" width="109.89" height="292"/>
<g>
	<rect x="338.33" y="387" style="fill:#5C00B6;" width="28" height="31.33"/>
	<rect x="299.8" y="387" style="fill:#5C00B6;" width="28" height="31.33"/>
	<rect x="261.27" y="387" style="fill:#5C00B6;" width="28" height="31.33"/>
</g>
<g>
	<rect x="222.73" y="387" style="fill:#8F23D6;" width="28" height="31.33"/>
	<rect x="184.2" y="387" style="fill:#8F23D6;" width="28" height="31.33"/>
	<rect x="145.67" y="387" style="fill:#8F23D6;" width="28" height="31.33"/>
</g>
<polygon style="fill:#F70600;" points="366.333,187.357 353.382,196 321.064,174.433 288.752,195.999 256.438,174.432 
	224.126,195.999 191.814,174.432 159.507,195.998 145.667,186.759 145.667,227.815 159.507,237.054 191.815,215.487 
	224.126,237.053 256.438,215.487 288.752,237.053 321.066,215.486 353.382,237.052 366.333,228.409 "/>
<polygon style="fill:#D60803;" points="256.438,215.487 288.752,237.053 321.066,215.486 353.382,237.052 366.333,228.409 
	366.333,187.357 353.382,196 321.064,174.433 288.752,195.999 256.438,174.432 "/>
<polygon style="fill:#F70600;" points="366.333,256.849 353.382,265.492 321.064,243.925 288.752,265.491 256.438,243.925 
	224.126,265.491 191.814,243.924 159.507,265.491 145.667,256.251 145.667,297.308 159.507,306.546 191.815,284.979 
	224.126,306.546 256.438,284.979 288.752,306.546 321.066,284.979 353.382,306.545 366.333,297.902 "/>
<polygon style="fill:#D60803;" points="256.438,284.979 288.752,306.546 321.066,284.979 353.382,306.545 366.333,297.902 
	366.333,256.849 353.382,265.492 321.064,243.925 288.752,265.491 256.438,243.925 "/>
<polygon style="fill:#8F23D6;" points="67.239,230.734 161.464,378.551 208.348,339.667 110.271,173.451 "/>
<polygon style="fill:#5C00B6;" points="444.761,230.734 350.536,378.551 303.652,339.667 401.729,173.451 "/>
<g>
</g>
<g>
</g>
<g>
</g>
<g>
</g>
<g>
</g>
<g>
</g>
<g>
</g>
<g>
</g>
<g>
</g>
<g>
</g>
<g>
</g>
<g>
</g>
<g>
</g>
<g>
</g>
<g>
</g>
</svg>
